<?xml version="1.0" encoding="utf-8"?>
<!-- Generator: Adobe Illustrator 26.3.0, SVG Export Plug-In . SVG Version: 6.00 Build 0)  -->
<svg version="1.1" id="Layer_1" xmlns="http://www.w3.org/2000/svg" xmlns:xlink="http://www.w3.org/1999/xlink" x="0px" y="0px"
	 viewBox="0 0 620.9 620.9" style="enable-background:new 0 0 620.9 620.9;" xml:space="preserve">
<style type="text/css">
	.st0{fill:#777777;}
</style>
<path class="st0" d="M620.9,310.5c0,171.5-139,310.5-310.5,310.5S0,481.9,0,310.5C0,139,139,0,310.5,0c0,0,0,0,0,0
	C482,0,620.9,139,620.9,310.5C620.9,310.4,620.9,310.5,620.9,310.5z M509,292.6c-2.2-17.2-6.5-34.1-13-50.2
	c-6.7-16.7-15.7-32.5-26.7-46.8c-10.9-14.4-23.6-27.2-38-38c-13.9-10-33.3-6.9-43.4,7c-9.7,13.5-7.1,32.2,5.9,42.5
	c9.8,7.5,18.6,16.3,26,26.1c7.5,9.9,13.7,20.7,18.4,32.2c4.5,11.2,7.5,22.9,9,34.8c1.5,11.7,1.4,23.6-0.2,35.3
	c-3.1,23.7-12.4,46.1-26.9,65.1c-15.1,19.7-35.3,35.1-58.3,44.4c-11.2,4.5-22.9,7.5-34.9,9c-11.7,1.5-23.5,1.4-35.1-0.2
	c-11.8-1.6-23.3-4.7-34.3-9.2c-11.1-4.6-21.5-10.6-31.1-17.9c-9.9-7.5-18.7-16.4-26.2-26.3c-7.5-9.8-13.6-20.6-18.2-32
	c-8.9-22.2-11.9-46.3-8.6-70c1.6-11.7,4.7-23.2,9.2-34.1c4.6-11.1,10.6-21.6,17.9-31.2c7.5-9.8,16.3-18.6,26.2-26.1
	c13.4-10.7,15.5-30.3,4.7-43.7c-10.3-12.9-29-15.4-42.4-5.7c-14.4,10.9-27.2,23.7-38.1,38c-10.5,13.8-19.2,28.9-25.8,45
	c-19.9,48.2-20.2,102.3-0.9,150.7c6.7,16.7,15.6,32.4,26.5,46.7c21.5,28.4,50.2,50.5,83.2,64c15.8,6.5,32.3,10.9,49.3,13.3
	c17,2.4,34.3,2.5,51.4,0.4c17.2-2.2,34-6.5,50.1-12.9c33.6-13.5,62.9-35.9,84.9-64.7C501.3,396.5,515.4,344.4,509,292.6L509,292.6z
	 M279.3,283.9c0,17.2,13.9,31.1,31,31.1c17.2,0,31.1-13.9,31.1-31c0,0,0,0,0,0V120.1c0-17.2-13.9-31.1-31.1-31.1
	c-17.2,0-31.1,13.9-31.1,31.1V283.9z"/>
</svg>
