<?xml version="1.0" encoding="utf-8"?>
<!-- Generator: Adobe Illustrator 26.3.0, SVG Export Plug-In . SVG Version: 6.00 Build 0)  -->
<svg version="1.1" id="Layer_1" xmlns="http://www.w3.org/2000/svg" xmlns:xlink="http://www.w3.org/1999/xlink" x="0px" y="0px"
	 viewBox="0 0 161.4 139" style="enable-background:new 0 0 161.4 139;" xml:space="preserve">
<style type="text/css">
	.st0{fill:#001E2F;}
	.st1{fill:#DADF00;}
</style>
<g transform="translate(-223 -54) translate(363 76.681) translate(-140 -22.681)">
	<g transform="translate(118.596)">
		<g transform="translate(0)">
			<rect x="-118.6" y="94.3" class="st0" width="3.4" height="19.9"/>
			<path class="st0" d="M-12.1,114.2l-10.8-10.7c-0.6-0.6-1.7-0.6-2.3,0c-0.3,0.3-0.5,0.7-0.5,1.1v9.5H-29V94.3h1l10.9,10.6
				c0.6,0.6,1.7,0.6,2.3,0c0.3-0.3,0.5-0.7,0.5-1.1v-9.5h3.3v19.9H-12.1z"/>
			<path class="st0" d="M-93.3,114.2l-10.8-10.7c-0.6-0.6-1.7-0.6-2.3,0c-0.3,0.3-0.5,0.7-0.5,1.1v9.5h-3.2V94.3h1l10.7,10.6
				c0.6,0.6,1.7,0.6,2.3,0c0.3-0.3,0.5-0.7,0.5-1.1v-9.5h3.3v19.9H-93.3z"/>
			<path class="st0" d="M-76.3,97.3v-3h-9.4c-0.9,0-1.6,0.7-1.6,1.6v18.3h3.3v-7.4c0-0.9,0.7-1.6,1.6-1.6l0,0h5.8v-2.9H-84v-3.4
				c0-0.9,0.7-1.6,1.6-1.6l0,0H-76.3z"/>
			<path class="st0" d="M-60.8,114.2h4.1l-5.6-7.9c0.4-0.1,0.7-0.2,1.1-0.4c1-0.5,1.9-1.2,2.5-2.2s0.9-2.1,0.9-3.3
				c0-1.2-0.3-2.3-0.9-3.3c-0.6-0.9-1.5-1.7-2.5-2.1c-1.2-0.5-2.5-0.8-3.8-0.8h-4.6c-0.9,0-1.6,0.7-1.6,1.6v18.3h3.4v-5.9
				c0-0.9,0.7-1.6,1.6-1.6l0,0h0.5L-60.8,114.2z M-67.9,98.8c0-0.9,0.7-1.6,1.6-1.6l0,0h1c0.7,0,1.4,0.1,2,0.4
				c0.5,0.2,1,0.6,1.3,1.1s0.5,1.2,0.5,1.8c0,0.6-0.1,1.3-0.5,1.8c-0.3,0.5-0.8,0.9-1.3,1.1c-0.6,0.3-1.3,0.4-2,0.4h-2.6V98.8z"/>
			<path class="st0" d="M38.7,114.2h4.1l-5.6-7.9c0.4-0.1,0.7-0.2,1.1-0.4c1-0.5,1.9-1.2,2.5-2.2s0.9-2.1,0.9-3.3
				c0-1.2-0.3-2.3-0.9-3.3c-0.6-0.9-1.5-1.7-2.5-2.1c-1.2-0.5-2.5-0.8-3.8-0.8H30c-0.9,0-1.6,0.7-1.6,1.6v18.3h3.4v-5.9
				c0-0.9,0.7-1.6,1.6-1.6l0,0h0.5L38.7,114.2z M31.7,98.8c0-0.9,0.7-1.6,1.6-1.6l0,0h1c0.7,0,1.4,0.1,2,0.4c0.5,0.2,1,0.6,1.3,1.1
				s0.5,1.2,0.5,1.8c0,0.6-0.1,1.3-0.5,1.8c-0.3,0.5-0.8,0.9-1.3,1.1c-0.6,0.3-1.3,0.4-2,0.4h-2.6V98.8z"/>
			<path class="st0" d="M-53.4,100.1c0.5-1.2,1.2-2.3,2.2-3.3c0.9-0.9,2.1-1.7,3.3-2.2c2.6-1,5.6-1,8.2,0c1.2,0.5,2.3,1.2,3.3,2.2
				c0.9,0.9,1.7,2,2.2,3.3c0.5,1.3,0.8,2.7,0.8,4.1s-0.2,2.8-0.8,4.1c-0.5,1.2-1.2,2.4-2.2,3.3c-0.9,0.9-2,1.7-3.3,2.2
				c-2.7,1-5.6,1-8.3,0c-1.2-0.5-2.3-1.2-3.3-2.2c-0.9-0.9-1.7-2.1-2.2-3.3c-0.5-1.3-0.8-2.7-0.8-4.1
				C-54.2,102.8-53.9,101.4-53.4,100.1z M-49.7,107.9c0.6,1,1.4,1.9,2.4,2.5c3.2,1.9,7.3,0.9,9.2-2.2c0.1-0.1,0.1-0.2,0.2-0.3
				c0.6-1.1,0.9-2.4,0.9-3.6c0-1.3-0.3-2.5-0.9-3.7c-0.5-1-1.4-1.9-2.4-2.5c-1.1-0.6-2.3-0.9-3.5-0.9s-2.4,0.3-3.5,0.9
				c-1,0.6-1.8,1.5-2.4,2.5c-0.6,1.1-0.9,2.4-0.9,3.6C-50.6,105.5-50.3,106.8-49.7,107.9L-49.7,107.9z"/>
			<path class="st0" d="M6.1,97.2v-3H-4.4c-0.9,0-1.6,0.7-1.6,1.6v18.3H6.1v-3h-8.8v-4.6c0-0.9,0.7-1.6,1.6-1.6l0,0h6.6v-2.8h-8.3
				v-3.3c0-0.9,0.7-1.6,1.6-1.6l0,0C-1.2,97.2,6.1,97.2,6.1,97.2z"/>
			<path class="st0" d="M23.3,97.2v-3H12.8c-0.9,0-1.6,0.7-1.6,1.6v18.3h12.1v-3h-8.9v-4.6c0-0.9,0.7-1.6,1.6-1.6l0,0h6.6v-2.8h-8.2
				v-3.3c0-0.9,0.7-1.6,1.6-1.6l0,0C16,97.2,23.3,97.2,23.3,97.2z"/>
		</g>
		<g transform="translate(0 27.821)">
			<path class="st0" d="M-110.5,95.3v4.7h-6.1v-4.7h-2v12.1h2v-4.6c0-0.5,0.4-1,1-1l0,0h5.1v5.6h2V95.3H-110.5z"/>
			<path class="st0" d="M-85.9,93.9v5.4c0,0.3-0.3,0.6-0.6,0.6c-0.1,0-0.2,0-0.3-0.1l0,0c-0.5-0.3-1.1-0.5-1.8-0.5
				c-0.7,0-1.3,0.2-1.9,0.5c-0.6,0.3-1.1,0.8-1.4,1.4c-0.7,1.4-0.7,3.1,0,4.5c0.3,0.6,0.8,1.1,1.4,1.4c0.6,0.3,1.2,0.5,1.9,0.5
				c0.6,0,1.2-0.2,1.8-0.5l0.1-0.1c0.2-0.2,0.6-0.1,0.7,0.1c0.1,0.1,0.1,0.2,0.1,0.3h1.9V93.9H-85.9z M-86.2,104.8
				c-0.2,0.4-0.5,0.7-0.9,0.9c-0.3,0.2-0.7,0.3-1.1,0.3s-0.8-0.1-1.2-0.3c-0.4-0.2-0.7-0.5-0.9-0.9c-0.3-0.9-0.3-1.9,0.1-2.8
				c0.2-0.4,0.5-0.7,0.9-0.9c0.4-0.1,0.8-0.2,1.2-0.2s0.7,0.1,1.1,0.3c0.4,0.2,0.7,0.5,0.9,0.9C-85.7,102.9-85.7,103.9-86.2,104.8
				L-86.2,104.8z"/>
			<path class="st0" d="M-80.8,95.5c0.2-0.2,0.5-0.3,0.8-0.3c0.3,0,0.6,0.1,0.8,0.3c0.4,0.4,0.5,1.1,0,1.6l0,0
				c-0.2,0.2-0.5,0.3-0.8,0.3c-0.3,0-0.6-0.1-0.8-0.3C-81.3,96.7-81.3,96-80.8,95.5C-80.9,95.5-80.8,95.5-80.8,95.5z M-79.1,99.4v8
				h-1.8v-8H-79.1z"/>
			<path class="st0" d="M-94.3,93.9v13.5h-1.9V93.9H-94.3z"/>
			<path class="st0" d="M-74.1,99.4v0.5c0,0.1,0,0.2,0.1,0.2s0.3,0,0.3-0.1c0.2-0.2,0.3-0.3,0.5-0.4c0.4-0.2,0.9-0.4,1.4-0.3
				c0.8-0.1,1.5,0.3,2.1,0.8c0.5,0.6,0.8,1.4,0.7,2.2v5.1h-1.9v-4.9c0-0.5-0.1-0.9-0.4-1.3c-0.3-0.3-0.7-0.5-1.1-0.5
				c-0.3,0-0.6,0.1-0.9,0.2s-0.5,0.4-0.6,0.6c-0.1,0.3-0.2,0.6-0.2,0.9v4.8H-76v-8h1.9"/>
			<path class="st0" d="M-36.7,99.4v0.5c0,0.1,0,0.2,0.1,0.2s0.3,0,0.3-0.1c0.2-0.2,0.3-0.3,0.5-0.4c0.4-0.2,0.9-0.4,1.4-0.3
				c0.8-0.1,1.5,0.3,2.1,0.8c0.5,0.6,0.8,1.4,0.7,2.2v5.1h-1.9v-4.9c0-0.5-0.1-0.9-0.4-1.3c-0.3-0.3-0.7-0.5-1.1-0.5
				c-0.3,0-0.6,0.1-0.9,0.2s-0.5,0.4-0.6,0.6c-0.1,0.4-0.2,0.7-0.2,1v4.8h-1.9v-8L-36.7,99.4"/>
			<path class="st0" d="M-106,101.1c0.4-0.6,0.9-1.1,1.5-1.5c1.4-0.7,3-0.7,4.4,0c0.6,0.3,1.2,0.9,1.5,1.5c0.7,1.3,0.7,3,0,4.3
				c-0.4,0.6-0.9,1.1-1.5,1.5c-1.4,0.7-3,0.7-4.4,0c-0.6-0.3-1.2-0.8-1.5-1.5C-106.8,104-106.8,102.4-106,101.1z M-104.4,104.5
				c0.6,1.1,2.1,1.6,3.2,0.9c0.4-0.2,0.7-0.5,0.9-0.9c0.2-0.4,0.3-0.9,0.3-1.3c0-0.5-0.1-0.9-0.3-1.3c-0.2-0.4-0.5-0.7-0.8-0.9
				c-0.8-0.4-1.7-0.4-2.4,0c-0.4,0.2-0.7,0.5-0.8,0.9c-0.2,0.4-0.3,0.9-0.3,1.3C-104.7,103.7-104.6,104.1-104.4,104.5z"/>
			<path class="st0" d="M-55,105.5c0.2,0.2,0.5,0.3,0.8,0.5c0.3,0.1,0.5,0.2,0.8,0.2s0.6-0.1,0.8-0.2c0.2-0.1,0.3-0.4,0.3-0.6
				c0-0.2-0.1-0.4-0.2-0.6c-0.2-0.2-0.4-0.3-0.6-0.4c-0.3-0.1-0.6-0.2-0.9-0.4c-0.4-0.1-0.7-0.3-1.1-0.5c-0.3-0.2-0.6-0.4-0.9-0.8
				c-0.2-0.3-0.4-0.8-0.3-1.2c0-0.4,0.1-0.9,0.4-1.2c0.3-0.3,0.6-0.6,1-0.7c0.3-0.3,0.8-0.3,1.3-0.3c0.4,0,0.8,0.1,1.2,0.2
				c0.4,0.1,0.7,0.3,1,0.5c0.3,0.2,0.6,0.4,0.8,0.7l-1,1.1c-0.3-0.3-0.6-0.6-0.9-0.8c-0.4-0.2-0.7-0.3-1.1-0.3c-0.2,0-0.5,0-0.7,0.2
				c-0.2,0.1-0.3,0.3-0.3,0.5c0,0.2,0.1,0.4,0.2,0.5c0.2,0.2,0.4,0.3,0.6,0.4c0.3,0.1,0.6,0.2,0.9,0.4c0.4,0.2,0.8,0.4,1.2,0.6
				c0.3,0.2,0.6,0.4,0.9,0.8c0.2,0.3,0.3,0.8,0.3,1.2c0,0.7-0.3,1.4-0.8,1.8c-0.6,0.5-1.3,0.7-2.1,0.7c-0.5,0-1-0.1-1.5-0.3
				c-0.4-0.2-0.8-0.4-1.2-0.7c-0.3-0.2-0.6-0.5-0.9-0.9l1.1-1.1C-55.5,105-55.3,105.3-55,105.5z"/>
			<rect x="-43.3" y="95.3" class="st0" width="2.1" height="12.1"/>
			<path class="st0" d="M-20,105.5c0.2-0.2,0.5-0.4,0.9-0.4c0.3,0,0.6,0.1,0.9,0.4c0.5,0.5,0.5,1.2,0,1.7c-0.2,0.2-0.5,0.4-0.9,0.4
				c-0.7,0-1.2-0.5-1.2-1.2C-20.4,106.1-20.3,105.8-20,105.5L-20,105.5z"/>
			<path class="st0" d="M-60.5,99.4v0.6c0,0,0,0.2-0.1,0.2c-0.2,0-0.4-0.2-0.4-0.2c-0.6-0.6-1.4-0.9-2.2-0.9c-0.7,0-1.3,0.2-1.9,0.5
				c-0.6,0.3-1.1,0.8-1.4,1.4c-0.7,1.4-0.7,3.1,0,4.5c0.3,0.6,0.8,1.1,1.4,1.4c0.6,0.3,1.2,0.5,1.9,0.5c0.6,0,1.2-0.2,1.8-0.5
				c0.4-0.3,0.7-0.6,1-1v1.2c0,0.5-0.1,1-0.3,1.5c-0.2,0.4-0.5,0.7-0.9,0.8c-0.3,0.2-0.7,0.3-1.1,0.3c-0.4,0-0.8-0.1-1.2-0.3
				c-0.3-0.2-0.6-0.4-0.8-0.7c-0.2-0.3-0.3-0.6-0.3-1h-1.9c0,0.6,0.2,1.3,0.5,1.8c0.3,0.5,0.8,1,1.4,1.2c0.7,0.3,1.4,0.5,2.2,0.4
				c0.7,0,1.4-0.2,2-0.5c0.6-0.3,1.2-0.8,1.5-1.4c0.4-0.7,0.6-1.5,0.6-2.4v-7.4H-60.5z M-60.9,104.7c-0.2,0.4-0.5,0.6-0.9,0.8
				c-0.3,0.2-0.7,0.3-1.1,0.3c-0.4,0-0.8-0.1-1.2-0.3c-0.4-0.2-0.7-0.5-0.9-0.8c-0.2-0.4-0.3-0.9-0.3-1.4s0.1-0.9,0.3-1.3
				c0.2-0.4,0.5-0.6,0.9-0.8c0.5-0.2,0.9-0.3,1.3-0.3c0.3,0,0.6,0.1,0.8,0.2c0.3,0.1,0.5,0.3,0.7,0.5c0.2,0.2,0.4,0.5,0.5,0.8
				c0.1,0.3,0.2,0.7,0.2,1.1C-60.5,103.8-60.6,104.3-60.9,104.7z"/>
			<path class="st0" d="M-27.3,104.8c0.4,0.8,1.3,1.2,2.1,1.2c0.4,0,0.7-0.1,1.1-0.2c0.3-0.1,0.6-0.3,0.9-0.5
				c0.2-0.2,0.4-0.4,0.6-0.7v2.1c-0.3,0.3-0.7,0.5-1.1,0.7c-0.5,0.2-1,0.2-1.6,0.2c-0.8,0-1.5-0.2-2.2-0.5c-0.6-0.3-1.2-0.8-1.5-1.5
				c-0.8-1.3-0.8-3,0-4.3c0.4-0.6,0.9-1.1,1.5-1.5c0.7-0.4,1.4-0.5,2.2-0.5c0.5,0,1.1,0.1,1.6,0.2c0.4,0.2,0.8,0.4,1.1,0.7v2.1
				c-0.1-0.3-0.3-0.5-0.6-0.7c-0.3-0.2-0.6-0.4-0.9-0.5c-0.4-0.1-0.7-0.2-1.1-0.2c-0.9,0-1.7,0.5-2.1,1.2
				C-27.8,103-27.8,103.9-27.3,104.8L-27.3,104.8z"/>
		</g>
	</g>
	<g transform="translate(0 0.37)">
		<path class="st1" d="M37,43.4l6.8-6.8c0.8-0.8,0.8-2.3,0-3.2c-0.5-0.5-1-0.6-1.6-0.6h-7.9c-1.6,0-3.1,0.6-4.2,1.8L3,62
			c-0.8,0.8-0.8,2.3,0,3.2c0.5,0.5,1,0.6,1.6,0.6h57.4c1.6,0,3.1-0.6,4.2-1.8l6.6-6.6c0.8-0.8,0.8-2.3,0-3.2c-0.5-0.5-1-0.6-1.6-0.6
			H41.4c-3.2,0-6-2.7-6-6C35.3,46,35.9,44.5,37,43.4z"/>
		<path class="st0" d="M126.7,22.1l-6.8,6.8c-0.8,0.8-0.8,2.3,0,3.2c0.5,0.5,1,0.6,1.6,0.6h7.9c1.6,0,3.1-0.6,4.2-1.8l27.1-27.5
			c0.8-0.8,0.8-2.3,0-3.2c-0.3-0.5-0.8-0.6-1.5-0.6h-57.7c-1.6,0-3.1,0.6-4.2,1.8L90.8,8c-0.8,0.8-0.8,2.3,0,3.2
			c0.5,0.5,1,0.6,1.6,0.6h29.9c3.2,0,6,2.6,6,6C128.3,19.3,127.8,21,126.7,22.1z"/>
	</g>
</g>
</svg>
