<?xml version="1.0" encoding="utf-8"?>
<!-- Generator: Adobe Illustrator 26.3.0, SVG Export Plug-In . SVG Version: 6.00 Build 0)  -->
<svg version="1.1" id="レイヤー_1" xmlns="http://www.w3.org/2000/svg" xmlns:xlink="http://www.w3.org/1999/xlink" x="0px"
	 y="0px" viewBox="0 0 213.5 246.2" style="enable-background:new 0 0 213.5 246.2;" xml:space="preserve">
<style type="text/css">
	.st0{fill:#E60012;}
</style>
<g>
	<path class="st0" d="M18.3,216c-1.8-1-3.9-1.4-6.3-1.4S7.5,215,5.7,216c-1.8,1-3.2,2.3-4.2,4.1c-1,1.8-1.5,3.8-1.5,6.1v8.3
		c0,2.3,0.5,4.4,1.5,6.1c1,1.8,2.4,3.1,4.2,4.1c1.8,0.9,3.9,1.4,6.3,1.4s4.5-0.5,6.3-1.4c1.8-1,3.2-2.3,4.2-4.1
		c1-1.8,1.5-3.8,1.5-6.1v-8.3c0-2.3-0.5-4.4-1.5-6.1C21.6,218.3,20.1,217,18.3,216 M12,240.6c-1.8,0-3.2-0.5-4.3-1.6
		c-1.1-1.1-1.6-2.5-1.6-4.3v-8.6c0-1.8,0.5-3.2,1.6-4.3c1.1-1.1,2.5-1.6,4.3-1.6s3.2,0.5,4.3,1.6c1.1,1.1,1.6,2.5,1.6,4.3v8.6
		c0,1.8-0.5,3.2-1.6,4.3C15.2,240,13.8,240.6,12,240.6"/>
	<path class="st0" d="M51.4,232.3c1.4-0.8,2.5-1.9,3.2-3.3c0.8-1.4,1.1-3,1.1-4.8c0-1.8-0.4-3.5-1.1-4.9c-0.8-1.4-1.9-2.5-3.2-3.3
		s-3-1.2-4.8-1.2h-13c-0.7,0-1.3,0.6-1.3,1.3v28.4c0,0.7,0.6,1.3,1.3,1.3h3.4c0.7,0,1.3-0.6,1.3-1.3v-11.1h5.4l6.5,11.8
		c0.2,0.4,0.7,0.7,1.2,0.7H56c0.8,0,1.2-0.8,0.9-1.5l-6.6-11.6C50.6,232.7,51,232.5,51.4,232.3 M49.4,224.1c0,1.2-0.3,2.1-0.8,2.8
		c-0.5,0.6-1.2,1-2,1h-8.4v-7.6h8.4c0.8,0,1.5,0.3,2,1C49.2,222,49.4,222.9,49.4,224.1"/>
	<path class="st0" d="M65.3,245.9h3.4c0.7,0,1.3-0.6,1.3-1.3v-28.4c0-0.7-0.6-1.3-1.3-1.3h-3.4c-0.7,0-1.3,0.6-1.3,1.3v28.4
		C64,245.3,64.6,245.9,65.3,245.9"/>
	<path class="st0" d="M112.3,245.9h3.4c0.7,0,1.3-0.6,1.3-1.3v-28.4c0-0.7-0.6-1.3-1.3-1.3h-3.4c-0.7,0-1.3,0.6-1.3,1.3v28.4
		C111,245.3,111.5,245.9,112.3,245.9"/>
	<path class="st0" d="M145.3,235l-13.5-19.5c-0.2-0.4-0.7-0.6-1.1-0.6h-3.2c-0.7,0-1.3,0.6-1.3,1.3v28.3c0,0.7,0.6,1.3,1.3,1.3h3.4
		c0.7,0,1.3-0.6,1.3-1.3v-18.4l13.5,19.2c0.2,0.4,0.7,0.6,1.1,0.6h3.3c0.7,0,1.3-0.6,1.3-1.3v-28.3c0-0.7-0.6-1.3-1.3-1.3h-3.4
		c-0.7,0-1.3,0.6-1.3,1.3L145.3,235L145.3,235z"/>
	<path class="st0" d="M169,215.7l-11.6,28.8c-0.3,0.7,0.2,1.4,0.9,1.4h4.1c0.6,0,1.1-0.3,1.2-0.9l2.1-5.6h11.8l2.1,5.6
		c0.2,0.5,0.7,0.9,1.2,0.9h4.1c0.7,0,1.2-0.7,0.9-1.4l-11.6-28.8c-0.2-0.5-0.7-0.8-1.2-0.8h-3.1C169.7,214.9,169.2,215.2,169,215.7
		 M175.7,233.9h-7.7l3.9-10.4L175.7,233.9z"/>
	<path class="st0" d="M198.6,240.4v-24.2c0-0.7-0.6-1.3-1.3-1.3h-3.4c-0.7,0-1.3,0.6-1.3,1.3v28.4c0,0.7,0.6,1.3,1.3,1.3h18.3
		c0.7,0,1.3-0.6,1.3-1.3v-2.8c0-0.7-0.6-1.3-1.3-1.3H198.6z"/>
	<path class="st0" d="M101.2,228.5h-10c-0.7,0-1.3,0.6-1.3,1.3v2.8c0,0.7,0.6,1.3,1.3,1.3l5.2,0v0.5c0,2-0.5,3.5-1.6,4.5
		c-1.1,1.1-2.4,1.6-4.2,1.6c-1.8,0-3.3-0.5-4.4-1.5c-1.1-1-1.6-2.3-1.6-4v-8.7c0-1.9,0.5-3.4,1.6-4.5c1.1-1.1,2.4-1.7,4.2-1.7
		c1.2,0,2.3,0.4,3.4,1.1c0.9,0.6,1.6,1.4,2,2.7c0.2,0.5,0.7,0.9,1.3,0.9h3.8c0.9,0,1.5-0.8,1.3-1.7c-0.5-1.8-1.2-3.1-2.1-4.2
		c-1.1-1.4-2.5-2.5-4.1-3.3s-3.5-1.2-5.4-1.2c-2.4,0-4.5,0.5-6.3,1.5c-1.8,1-3.2,2.4-4.2,4.1c-1,1.8-1.5,3.8-1.5,6.2v8.7
		c0,2.2,0.5,4.2,1.5,5.9c1,1.7,2.4,3,4.3,3.9c1.8,0.9,3.9,1.4,6.3,1.4c2.4,0,3.7-0.5,5.5-1.5c0.5-0.3,0.9-0.5,1.4-0.9v0.7
		c0,0.7,0.6,1.3,1.3,1.3h2.5c0.7,0,1.3-0.6,1.3-1.3v-14.7C102.5,229.1,102,228.5,101.2,228.5"/>
</g>
<g>
	<path class="st0" d="M89.4,126.4c6.9,2.8,19.4,5.5,38.7,2.1c16.6-2.9,19.7-11.6,18.3-19.6c-1.5-8.6-9.5-10.8-15-11.3
		c-12.2,5.4-24.5,9.4-33.2,11.9L89.4,126.4z"/>
	<g>
		<path class="st0" d="M106.8,0C69.9,0,38.1,21.6,23.3,52.7c36.5-6.4,98.3-17.3,106.5-18.8c11.8-2.1,39-6.3,43.2,17.6
			c3,17.2-12.2,30.8-30.6,40.7c12,1,22.8,5.9,24.9,17.5c2.6,14.6-13.9,25.3-33.8,28.9c-21.3,3.7-42.7-2.9-47.9-4.7l-12.8,24.5
			l-22.2,3.9l45.7-91.6l24.4-4.3L103,100.3c21.1-8.9,53.4-25.5,50.4-43.1c-0.8-4.6-3.4-9.7-20.7-6.7c-15.7,2.8-102.3,27.5-117.8,32
			c-0.4,3.3-0.6,6.6-0.6,9.9c0,51.1,41.4,92.4,92.4,92.4s92.4-41.4,92.4-92.4S157.8,0,106.8,0"/>
	</g>
</g>
</svg>
