<svg xmlns="http://www.w3.org/2000/svg" viewBox="0 0 146.92 46.62"><defs><style>.cls-1{fill:#333;}</style></defs><title>Asset 1</title><g id="Layer_2" data-name="Layer 2"><g id="レイヤー_1" data-name="レイヤー 1"><path class="cls-1" d="M18.94,31.87c1.75.71,4.89,1.38,9.75.53,4.19-.74,5-2.92,4.62-4.94-.38-2.17-2.4-2.73-3.78-2.85a66.25,66.25,0,0,1-8.37,3Z"/><path class="cls-1" d="M23.31,0a23.3,23.3,0,0,0-21,13.29L29.11,8.56C32.08,8,38.94,7,40,13c.76,4.33-3.07,7.76-7.73,10.27,3,.26,5.76,1.48,6.28,4.43C39.2,31.36,35,34.08,30,35a26.29,26.29,0,0,1-12.07-1.19L14.72,40l-5.6,1L20.64,17.85l6.16-1.09L22.36,25.3c5.33-2.23,13.48-6.42,12.7-10.86-.21-1.16-.87-2.44-5.21-1.68C25.9,13.46,4,19.7.13,20.82A22.81,22.81,0,0,0,0,23.31,23.31,23.31,0,1,0,23.31,0"/><rect class="cls-1" x="60.7" y="22.64" width="86.22" height="1.35"/><path class="cls-1" d="M68.1,6A5.76,5.76,0,0,0,63,6a4.24,4.24,0,0,0-1.71,1.65,5,5,0,0,0-.61,2.47V13.5A4.94,4.94,0,0,0,61.31,16,4.18,4.18,0,0,0,63,17.62a5.76,5.76,0,0,0,5.08,0A4.15,4.15,0,0,0,69.82,16a5,5,0,0,0,.6-2.47V10.14a5,5,0,0,0-.6-2.47A4.21,4.21,0,0,0,68.1,6m-2.54,9.91a2.3,2.3,0,0,1-1.72-.64,2.34,2.34,0,0,1-.64-1.73V10.08a2.34,2.34,0,0,1,.64-1.73,2.64,2.64,0,0,1,3.45,0,2.34,2.34,0,0,1,.64,1.73v3.48a2.34,2.34,0,0,1-.64,1.73,2.31,2.31,0,0,1-1.73.64"/><path class="cls-1" d="M81.44,12.58a3.33,3.33,0,0,0,1.31-1.32,4,4,0,0,0,.46-2,4,4,0,0,0-.46-2A3.33,3.33,0,0,0,81.44,6a3.9,3.9,0,0,0-1.94-.47H74.24a.54.54,0,0,0-.54.54V17.54a.54.54,0,0,0,.54.54h1.37a.54.54,0,0,0,.54-.54V13.05h2.19L81,17.8a.51.51,0,0,0,.47.28h1.87a.4.4,0,0,0,.35-.6L81,12.8a2.62,2.62,0,0,0,.48-.22M80.65,9.3a1.89,1.89,0,0,1-.31,1.15,1,1,0,0,1-.81.38H76.15V7.77h3.38a1,1,0,0,1,.81.39,1.86,1.86,0,0,1,.31,1.14"/><path class="cls-1" d="M87.07,18.08h1.37a.54.54,0,0,0,.53-.54V6.1a.54.54,0,0,0-.53-.54H87.07a.54.54,0,0,0-.54.54V17.54a.54.54,0,0,0,.54.54"/><path class="cls-1" d="M106,18.08h1.37a.54.54,0,0,0,.54-.54V6.1a.54.54,0,0,0-.54-.54H106a.54.54,0,0,0-.54.54V17.54a.54.54,0,0,0,.54.54"/><path class="cls-1" d="M119.36,13.67l-5.47-7.88a.52.52,0,0,0-.44-.23h-1.31a.54.54,0,0,0-.53.54V17.54a.54.54,0,0,0,.53.54h1.36a.54.54,0,0,0,.53-.54V10.09l5.45,7.76a.55.55,0,0,0,.44.23h1.33a.54.54,0,0,0,.54-.54V6.1a.54.54,0,0,0-.54-.54H119.9a.54.54,0,0,0-.54.54Z"/><path class="cls-1" d="M128.93,5.9l-4.66,11.63a.41.41,0,0,0,.38.55h1.67a.54.54,0,0,0,.51-.35l.84-2.26h4.78l.84,2.26a.54.54,0,0,0,.5.35h1.68a.4.4,0,0,0,.37-.55L131.18,5.9a.53.53,0,0,0-.5-.34h-1.25a.54.54,0,0,0-.5.34m2.69,7.35H128.5l1.56-4.17Z"/><path class="cls-1" d="M140.89,15.86V6.1a.54.54,0,0,0-.54-.54H139a.54.54,0,0,0-.54.54V17.54a.54.54,0,0,0,.54.54h7.39a.54.54,0,0,0,.54-.54V16.4a.54.54,0,0,0-.54-.54Z"/><path class="cls-1" d="M101.57,11.05h-4a.54.54,0,0,0-.54.53v1.15a.54.54,0,0,0,.54.54h2.08v.2A2.45,2.45,0,0,1,99,15.3a2.27,2.27,0,0,1-1.72.65,2.4,2.4,0,0,1-1.75-.62,2.1,2.1,0,0,1-.65-1.63V10.19a2.53,2.53,0,0,1,.64-1.82,2.2,2.2,0,0,1,1.71-.67,2.38,2.38,0,0,1,1.36.43,2.14,2.14,0,0,1,.8,1.1.55.55,0,0,0,.51.37h1.52a.54.54,0,0,0,.52-.68,4.45,4.45,0,0,0-.84-1.69A4.72,4.72,0,0,0,99.4,5.91a4.92,4.92,0,0,0-2.19-.48,5.14,5.14,0,0,0-2.53.6A4.23,4.23,0,0,0,93,7.7a5,5,0,0,0-.6,2.49V13.7A4.57,4.57,0,0,0,93,16.07a4.14,4.14,0,0,0,1.73,1.58,5.6,5.6,0,0,0,2.55.56,4.11,4.11,0,0,0,2.22-.59,5.07,5.07,0,0,0,.54-.36v.28a.54.54,0,0,0,.54.54h1a.54.54,0,0,0,.53-.54v-6a.53.53,0,0,0-.53-.53"/><path class="cls-1" d="M97.73,41.07h7.88a.53.53,0,0,0,.53-.53V39.38a.53.53,0,0,0-.53-.53h-6V36h5a.52.52,0,0,0,.53-.53V34.26a.53.53,0,0,0-.53-.53h-5v-3h6a.53.53,0,0,0,.53-.53V29.07a.53.53,0,0,0-.53-.53H97.73a.53.53,0,0,0-.53.53V40.54a.53.53,0,0,0,.53.53"/><path class="cls-1" d="M74.23,41.07h7.88a.53.53,0,0,0,.53-.53V39.38a.53.53,0,0,0-.53-.53h-6V36h5a.52.52,0,0,0,.53-.53V34.26a.53.53,0,0,0-.53-.53h-5v-3h6a.53.53,0,0,0,.53-.53V29.07a.53.53,0,0,0-.53-.53H74.23a.53.53,0,0,0-.53.53V40.54a.53.53,0,0,0,.53.53"/><path class="cls-1" d="M120.25,29.07v1.16a.53.53,0,0,0,.53.53h3.12v9.78a.53.53,0,0,0,.53.53h1.39a.53.53,0,0,0,.53-.53V30.76h3.12a.53.53,0,0,0,.53-.53V29.07a.53.53,0,0,0-.53-.53h-8.69a.53.53,0,0,0-.53.53"/><path class="cls-1" d="M69.22,34.61A5.07,5.07,0,0,0,67.85,34c-.48-.12-1-.23-1.45-.32s-1-.2-1.46-.31A2.53,2.53,0,0,1,64,33a.93.93,0,0,1-.31-.78,1.26,1.26,0,0,1,.59-1.12,3.49,3.49,0,0,1,1.88-.43,4.83,4.83,0,0,1,2.61.84.54.54,0,0,0,.71-.12l.76-1a.55.55,0,0,0-.15-.79,6.88,6.88,0,0,0-2.2-1,3.8,3.8,0,0,0-.88-.17,6.5,6.5,0,0,0-4.43.94,3.85,3.85,0,0,0-.89,4.67,2.88,2.88,0,0,0,1.13,1.06,5.46,5.46,0,0,0,1.44.51c.5.1,1,.2,1.48.28a11.61,11.61,0,0,1,1.36.28,2,2,0,0,1,.89.47,1,1,0,0,1,.29.81,1.16,1.16,0,0,1-.62,1.08,3.82,3.82,0,0,1-2,.44,6,6,0,0,1-1.83-.28A4.42,4.42,0,0,1,62.39,38a.55.55,0,0,0-.72.08l-.83.95a.53.53,0,0,0,.09.79,6.85,6.85,0,0,0,2,1,9,9,0,0,0,2.67.38,6.24,6.24,0,0,0,3.69-1,3.28,3.28,0,0,0,1.37-2.82,3.47,3.47,0,0,0-.39-1.74,3,3,0,0,0-1-1.06"/><path class="cls-1" d="M116.55,36.47A.54.54,0,0,0,116,37a2.35,2.35,0,0,1-.61,1.31,2.17,2.17,0,0,1-1.68.67,2.21,2.21,0,0,1-1.69-.67,2.53,2.53,0,0,1-.64-1.82V33.17a2.54,2.54,0,0,1,.64-1.82,2.21,2.21,0,0,1,1.69-.67,2.17,2.17,0,0,1,1.68.67,2.35,2.35,0,0,1,.61,1.31.52.52,0,0,0,.53.47H118a.54.54,0,0,0,.54-.59,4.71,4.71,0,0,0-.57-1.86,4.21,4.21,0,0,0-1.7-1.67,5.66,5.66,0,0,0-5,0,4.21,4.21,0,0,0-1.7,1.67,5,5,0,0,0-.6,2.49v3.27a5,5,0,0,0,.6,2.48,4.23,4.23,0,0,0,1.7,1.68,5.66,5.66,0,0,0,5,0,4.23,4.23,0,0,0,1.7-1.68,4.71,4.71,0,0,0,.57-1.86.54.54,0,0,0-.54-.59Z"/><path class="cls-1" d="M88.13,38.85V29.08a.54.54,0,0,0-.54-.54H86.22a.54.54,0,0,0-.54.54V40.53a.54.54,0,0,0,.54.54h7.4a.54.54,0,0,0,.54-.54V39.38a.54.54,0,0,0-.54-.53Z"/></g></g></svg>