<svg xmlns="http://www.w3.org/2000/svg" viewBox="0 0 103.038 20.703"><g transform="translate(0 0.983)"><path d="M125.566,426.064c-2.874,0-3.764.181-4.514.517a3.769,3.769,0,0,0-2.264,2.963,39.449,39.449,0,0,0-.418,6.1,38.361,38.361,0,0,0,.379,5.914,3.89,3.89,0,0,0,2.724,3.183,13.352,13.352,0,0,0,4.093.324,14.758,14.758,0,0,0,3.878-.3,3.705,3.705,0,0,0,2.793-2.83,31.883,31.883,0,0,0,.393-6.292,37.716,37.716,0,0,0-.422-6.231,3.712,3.712,0,0,0-2.59-2.994A13.273,13.273,0,0,0,125.566,426.064Z" transform="translate(-118.37 -425.569)" fill="#418fde"/><path d="M153.75,427.952c-2.091,1.969-2.616,2.71-2.933,3.468a3.777,3.777,0,0,0,.38,3.711,39.423,39.423,0,0,0,3.877,4.734,38.444,38.444,0,0,0,4.327,4.046,3.886,3.886,0,0,0,4.165.452,13.284,13.284,0,0,0,3.2-2.567,14.679,14.679,0,0,0,2.621-2.875,3.7,3.7,0,0,0,.1-3.973,31.811,31.811,0,0,0-4.025-4.853,37.867,37.867,0,0,0-4.576-4.252,3.713,3.713,0,0,0-3.937-.405A13.3,13.3,0,0,0,153.75,427.952Z" transform="translate(-134.853 -425.048)" fill="#418fde"/></g><g transform="translate(44.617)"><g transform="translate(0 4.013)"><path d="M227.62,431.788h0Z" transform="translate(-219.039 -431.537)" fill="#7c878e"/><path d="M284.4,436.444a2.142,2.142,0,0,1,.332-3.8,3.393,3.393,0,0,1,1.435-.309,3.3,3.3,0,0,1,2.63,1.122l.48-1.569a9.066,9.066,0,0,0-3.221-.614c-2.413,0-4.6,1.365-4.6,3.684,0,3.14,3.544,3.764,5.276,5.2,2.172,1.8.721,4.713-1.918,4.713a4.958,4.958,0,0,1-3.1-1.273l-.4,1.625a9.423,9.423,0,0,0,3.784.839c2.45,0,4.736-1.407,4.736-4.247C289.837,438.837,286.348,437.8,284.4,436.444Z" transform="translate(-246.589 -431.272)" fill="#7c878e"/><path d="M248.3,431.331c-4.287,0-6.565,3.4-6.565,7.366,0,4.328,2.513,7.428,6.558,7.428,3.954,0,6.653-2.765,6.653-7.428C254.944,434.381,252.5,431.331,248.3,431.331Zm-.008,13.727c-2.8,0-4.376-2.749-4.376-6.387,0-3.6,1.686-6.277,4.4-6.277,3.149,0,4.454,3.038,4.454,6.277C252.766,442.4,251.164,445.058,248.292,445.058Z" transform="translate(-226.281 -431.302)" fill="#7c878e"/><path d="M217.991,442.433c-1.265-1.341-3.593-3.914-3.593-3.914s2.054-2.309,3.2-3.513,3.256-3.189,3.256-3.189h0a8.164,8.164,0,0,1-1.137.069,8.406,8.406,0,0,1-1.136-.069s-1.91,2.162-3.077,3.339-3.264,3.343-3.281,3.359c.006-4.471.125-6.7.125-6.7a10.07,10.07,0,0,1-2.349,0s.124,2.352.124,7.087-.124,7.075-.124,7.087a10.224,10.224,0,0,1,2.349,0c0-.013-.125-2.366-.125-7.087v-.385c.017.016,2.209,2.329,3.467,3.748,1.2,1.357,3.236,3.725,3.236,3.725a10.707,10.707,0,0,1,1.264-.068,12.635,12.635,0,0,1,1.325.068S219.256,443.776,217.991,442.433Z" transform="translate(-209.998 -431.552)" fill="#7c878e"/><path d="M321.623,444.72s-1.481.094-3.987.094c-.6,0-1.161-.007-1.639-.015-.021-.677-.044-1.673-.059-2.914-.011-.766-.017-1.671-.017-2.652.193,0,.4,0,.642,0,2.286,0,2.51,0,4.546.061a2.986,2.986,0,0,1-.052-.6,4.923,4.923,0,0,1,.03-.6c-2.028.062-2.255.06-4.537.06l-.642,0c0-.82.02-1.588.03-2.249.015-1.231.038-2.212.059-2.887.449-.006.972-.013,1.523-.013,2.431,0,3.875.093,3.875.093a2.044,2.044,0,0,1-.05-.542,5.788,5.788,0,0,1,.05-.731s-1.443.079-3.875.079c-1.611,0-2.776-.035-3.367-.058l-.458-.027v.006h0v.01c.008.158.123,2.5.123,7.072,0,4.736-.124,7.09-.124,7.09s1.433-.079,3.94-.079,3.982.079,3.986.079a5.367,5.367,0,0,1-.049-.705A2.433,2.433,0,0,1,321.623,444.72Z" transform="translate(-263.202 -431.552)" fill="#7c878e"/></g><path d="M320.319,425.691a2.031,2.031,0,0,0-.38-.209c-.229-.1-.458-.167-.458-.167a11.854,11.854,0,0,0,2.131-1.853,1.453,1.453,0,0,1,.578-.394.836.836,0,0,1,1.063,1,1.422,1.422,0,0,1-.658.8,5.587,5.587,0,0,1-1.055.5,5.314,5.314,0,0,1-1.067.3C320.435,425.678,320.319,425.691,320.319,425.691Z" transform="translate(-266.17 -423.03)" fill="#7c878e"/></g></svg>