<svg width="20" height="20" viewBox="0 0 20 20" fill="none" xmlns="http://www.w3.org/2000/svg">
<path d="M17.51 3.85L11.57 0.42C10.6 -0.14 9.39998 -0.14 8.41998 0.42L2.48998 3.85C1.51998 4.41 0.919983 5.45 0.919983 6.58V13.42C0.919983 14.54 1.51998 15.58 2.48998 16.15L8.42998 19.58C9.39998 20.14 10.6 20.14 11.58 19.58L17.52 16.15C18.49 15.59 19.09 14.55 19.09 13.42V6.58C19.08 5.45 18.48 4.42 17.51 3.85ZM9.99998 5.34C11.29 5.34 12.33 6.38 12.33 7.67C12.33 8.96 11.29 10 9.99998 10C8.70998 10 7.66998 8.96 7.66998 7.67C7.66998 6.39 8.70998 5.34 9.99998 5.34ZM12.68 14.66H7.31998C6.50998 14.66 6.03998 13.76 6.48998 13.09C7.16998 12.08 8.48998 11.4 9.99998 11.4C11.51 11.4 12.83 12.08 13.51 13.09C13.96 13.75 13.48 14.66 12.68 14.66Z" fill="white"/>
</svg>
