<svg width="48" height="48" viewBox="0 0 48 48" fill="none" xmlns="http://www.w3.org/2000/svg">
<path d="M41.98 19.42C41.3 19.14 40.4 19 39.28 19H28.72C25.24 19 24 20.24 24 23.76V39.24C24 40.4 24.14 41.3 24.44 42C25.06 43.44 26.38 44 28.72 44H39.28C42.76 44 44 42.74 44 39.24V23.76C44 21.38 43.44 20.04 41.98 19.42ZM36 39.5H32C31.96 39.5 31.9 39.5 31.86 39.48C31.56 39.46 31.3 39.36 31.08 39.16C30.72 38.9 30.5 38.48 30.5 38C30.5 37.18 31.18 36.5 32 36.5H36C36.82 36.5 37.5 37.18 37.5 38C37.5 38.82 36.82 39.5 36 39.5Z" fill="#6001D3"/>
<path d="M41.9795 12.38V14C41.9795 15.1 41.0795 16 39.9795 16H28.7195C23.5995 16 20.9995 18.62 20.9995 23.76V42C20.9995 43.1 20.0995 44 18.9995 44H15.0995C14.2995 44 13.6595 43.36 13.6595 42.58C13.6595 41.78 14.2995 41.16 15.0995 41.16H18.9995V33.5H11.9995C7.55953 33.28 4.01953 29.62 4.01953 25.12V12.38C4.01953 7.76 7.77953 4 12.4195 4H33.5995C38.2195 4 41.9795 7.76 41.9795 12.38Z" fill="#6001D3"/>
</svg>
