<svg width="48" height="48" viewBox="0 0 48 48" fill="none" xmlns="http://www.w3.org/2000/svg">
<path d="M34 45.5H14C13.18 45.5 12.5 44.82 12.5 44C12.5 43.18 13.18 42.5 14 42.5H34C34.82 42.5 35.5 43.18 35.5 44C35.5 44.82 34.82 45.5 34 45.5Z" fill="#6001D3"/>
<path d="M36 4H12C7.58 4 4 7.58 4 12V30C4 34.42 7.58 38 12 38H36C40.42 38 44 34.42 44 30V12C44 7.58 40.42 4 36 4ZM19.98 14.64C21.1 14.64 22 15.54 22 16.64C22 17.74 21.1 18.64 20 18.64C18.9 18.64 18 17.74 18 16.64C18 15.54 18.88 14.64 19.98 14.64ZM13.68 14.64C14.8 14.64 15.7 15.54 15.7 16.64C15.7 17.74 14.8 18.64 13.7 18.64C12.6 18.64 11.7 17.74 11.7 16.64C11.7 15.54 12.56 14.64 13.68 14.64ZM34.52 29.72H13.52C12.68 29.72 12 29.04 12 28.22C12 27.4 12.66 26.72 13.48 26.72H34.54C35.36 26.72 36.04 27.4 36.04 28.22C36.04 29.04 35.36 29.72 34.52 29.72ZM34.52 18.14H27.16C26.34 18.14 25.66 17.46 25.66 16.64C25.66 15.82 26.34 15.14 27.16 15.14H34.52C35.34 15.14 36.02 15.82 36.02 16.64C36.02 17.46 35.36 18.14 34.52 18.14Z" fill="#6001D3"/>
</svg>
