<svg width="48" height="48" viewBox="0 0 48 48" fill="none" xmlns="http://www.w3.org/2000/svg">
<path d="M33.3 11.4399H14.7C8.8 11.4399 4 16.2399 4 22.1399V33.2999C4 39.1999 8.8 43.9999 14.7 43.9999H33.3C39.2 43.9999 44 39.1999 44 33.2999V22.1399C44 16.2399 39.2 11.4399 33.3 11.4399ZM29 24.0399C29 22.9399 29.9 22.0399 31 22.0399C32.1 22.0399 33 22.9399 33 24.0399C33 25.1399 32.1 26.0599 31 26.0599C29.9 26.0599 29 25.1799 29 24.0799V24.0399ZM20.26 32.1399C19.96 32.4399 19.58 32.5799 19.2 32.5799C18.82 32.5799 18.44 32.4399 18.14 32.1399L16.08 30.0799L14.1 32.0599C13.8 32.3599 13.42 32.4999 13.04 32.4999C12.66 32.4999 12.28 32.3599 11.98 32.0599C11.4 31.4799 11.4 30.5199 11.98 29.9399L13.96 27.9599L12.04 26.0399C11.46 25.4599 11.46 24.4999 12.04 23.9199C12.62 23.3399 13.58 23.3399 14.16 23.9199L16.08 25.8399L18.06 23.8599C18.64 23.2799 19.6 23.2799 20.18 23.8599C20.76 24.4399 20.76 25.3999 20.18 25.9799L18.2 27.9599L20.26 30.0199C20.84 30.5999 20.84 31.5599 20.26 32.1399ZM27.08 29.9999C25.98 29.9999 25.06 29.0999 25.06 27.9999C25.06 26.8999 25.94 25.9999 27.04 25.9999H27.08C28.18 25.9999 29.08 26.8999 29.08 27.9999C29.08 29.0999 28.2 29.9999 27.08 29.9999ZM31 33.9399C29.9 33.9399 29 33.0599 29 31.9599V31.9199C29 30.8199 29.9 29.9199 31 29.9199C32.1 29.9199 33 30.8199 33 31.9199C33 33.0199 32.12 33.9399 31 33.9399ZM34.96 29.9999C33.86 29.9999 32.94 29.0999 32.94 27.9999C32.94 26.8999 33.82 25.9999 34.92 25.9999H34.96C36.06 25.9999 36.96 26.8999 36.96 27.9999C36.96 29.0999 36.08 29.9999 34.96 29.9999Z" fill="#6001D3"/>
<path d="M27.2797 5.42L27.2597 7.3C27.2397 9.06 25.7797 10.52 23.9997 10.52C23.6997 10.52 23.5197 10.72 23.5197 10.98C23.5197 11.24 23.7197 11.44 23.9797 11.44H20.7597C20.7397 11.3 20.7197 11.14 20.7197 10.98C20.7197 9.18 22.1797 7.72 23.9597 7.72C24.2597 7.72 24.4597 7.52 24.4597 7.26L24.4797 5.38C24.4997 4.62 25.1197 4 25.8797 4H25.8997C26.6797 4 27.2797 4.64 27.2797 5.42Z" fill="#6001D3"/>
</svg>
