<svg width="48" height="48" viewBox="0 0 48 48" fill="none" xmlns="http://www.w3.org/2000/svg">
<path d="M32.48 4H15.52C10 4 8 6 8 11.62V36.38C8 42 10 44 15.52 44H32.46C38 44 40 42 40 36.38V11.62C40 6 38 4 32.48 4ZM24 38.6C22.08 38.6 20.5 37.02 20.5 35.1C20.5 33.18 22.08 31.6 24 31.6C25.92 31.6 27.5 33.18 27.5 35.1C27.5 37.02 25.92 38.6 24 38.6ZM28 12.5H20C19.18 12.5 18.5 11.82 18.5 11C18.5 10.18 19.18 9.5 20 9.5H28C28.82 9.5 29.5 10.18 29.5 11C29.5 11.82 28.82 12.5 28 12.5Z" fill="#6001D3"/>
</svg>
