<svg width="94" height="47" viewBox="0 0 94 47" fill="none" xmlns="http://www.w3.org/2000/svg">
<path fill-rule="evenodd" clip-rule="evenodd" d="M90.6436 45.3214V25.1785C90.6436 24.2515 91.3951 23.5 92.323 23.5C93.25 23.5 94.0015 24.2515 94.0015 25.1785V45.3214C94.0015 46.2484 93.25 46.9999 92.323 46.9999C91.3951 46.9999 90.6436 46.2484 90.6436 45.3214ZM80.5723 44.6498V7.05049C80.5723 6.12259 81.3238 5.37109 82.2508 5.37109C83.1778 5.37109 83.9293 6.12259 83.9293 7.05049V44.6498C83.9293 45.5768 83.1778 46.3283 82.2508 46.3283C81.3238 46.3283 80.5723 45.5768 80.5723 44.6498ZM70.501 44.6502V17.1219C70.501 16.1949 71.2525 15.4434 72.1804 15.4434C73.1074 15.4434 73.8589 16.1949 73.8589 17.1219V44.6502C73.8589 45.5772 73.1074 46.3287 72.1804 46.3287C71.2525 46.3287 70.501 45.5772 70.501 44.6502ZM60.4297 44.6498V4.36405C60.4297 3.43705 61.1812 2.68555 62.1082 2.68555C63.0352 2.68555 63.7867 3.43705 63.7867 4.36405V44.6498C63.7867 45.5768 63.0352 46.3283 62.1082 46.3283C61.1812 46.3283 60.4297 45.5768 60.4297 44.6498ZM50.3574 44.6502V10.4079C50.3574 9.48002 51.1089 8.72852 52.0368 8.72852C52.9638 8.72852 53.7153 9.48002 53.7153 10.4079V44.6502C53.7153 45.5772 52.9638 46.3287 52.0368 46.3287C51.1089 46.3287 50.3574 45.5772 50.3574 44.6502ZM40.2871 44.6499V1.6785C40.2871 0.7515 41.0386 0 41.9656 0C42.8926 0 43.6441 0.7515 43.6441 1.6785V44.6499C43.6441 45.5769 42.8926 46.3284 41.9656 46.3284C41.0386 46.3284 40.2871 45.5769 40.2871 44.6499ZM30.2148 44.6499V27.8649C30.2148 26.937 30.9672 26.1855 31.8942 26.1855C32.8212 26.1855 33.5727 26.937 33.5727 27.8649V44.6499C33.5727 45.5769 32.8212 46.3284 31.8942 46.3284C30.9672 46.3284 30.2148 45.5769 30.2148 44.6499ZM20.1436 44.6502V10.407C20.1436 9.48002 20.8951 8.72852 21.8221 8.72852C22.7491 8.72852 23.5006 9.48002 23.5006 10.407V44.6502C23.5006 45.5772 22.7491 46.3287 21.8221 46.3287C20.8951 46.3287 20.1436 45.5772 20.1436 44.6502ZM10.0723 44.6501V22.493C10.0723 21.566 10.8247 20.8145 11.7517 20.8145C12.6787 20.8145 13.4302 21.566 13.4302 22.493V44.6501C13.4302 45.5771 12.6787 46.3286 11.7517 46.3286C10.8247 46.3286 10.0723 45.5771 10.0723 44.6501ZM0.000976562 44.6502V10.407C0.000976562 9.48002 0.752477 8.72852 1.67948 8.72852C2.60648 8.72852 3.35798 9.48002 3.35798 10.407V44.6502C3.35798 45.5772 2.60648 46.3287 1.67948 46.3287C0.752477 46.3287 0.000976562 45.5772 0.000976562 44.6502Z" fill="#25DAD9"/>
</svg>
