<svg id="Capa_1" enable-background="new 0 0 494.001 494.001" height="512" viewBox="0 0 494.001 494.001" width="512" xmlns="http://www.w3.org/2000/svg"><g><g><path d="m445.288 89.009h-396.579c-26.889.03-48.679 21.82-48.709 48.709v218.564c.03 26.888 21.82 48.679 48.709 48.709h396.579c26.89-.029 48.682-21.819 48.712-48.709v-218.564c-.03-26.889-21.822-48.679-48.712-48.709zm-112.464 157.991 140.458-118.303c.943 2.914 1.422 5.958 1.421 9.02v218.564c.001 3.062-.478 6.106-1.42 9.02zm112.464-138.694c5.822-.006 11.513 1.725 16.346 4.972l-214.634 180.781-214.634-180.781c4.832-3.247 10.523-4.978 16.344-4.971zm-424.569 256.999c-.943-2.915-1.422-5.959-1.421-9.022v-218.565c-.001-3.062.479-6.107 1.421-9.021l140.456 118.303zm27.99 20.39c-5.82.008-11.511-1.722-16.343-4.967l143.786-121.108 64.632 54.436c3.591 3.025 8.84 3.025 12.431 0l64.632-54.437 143.785 121.103c-4.832 3.247-10.523 4.979-16.345 4.972h-396.578z"/></g></g></svg>