<svg width="36" height="23" viewBox="0 0 36 23" fill="none" xmlns="http://www.w3.org/2000/svg">
<path d="M3.45528 7.08938C3.91068 7.35068 5.2834 8.12673 7.57353 9.41715C9.86374 10.7076 11.6182 11.7012 12.837 12.398C12.9709 12.4743 13.2553 12.6404 13.6905 12.8963C14.1258 13.1524 14.4875 13.3593 14.7753 13.5172C15.0633 13.675 15.4114 13.852 15.8201 14.048C16.2286 14.2438 16.6137 14.391 16.9753 14.4885C17.337 14.5868 17.6718 14.6355 17.9798 14.6355H18H18.0202C18.3282 14.6355 18.6632 14.5868 19.0248 14.4885C19.3863 14.391 19.7717 14.2436 20.1799 14.048C20.5883 13.8518 20.9365 13.6749 21.2245 13.5172C21.5125 13.3593 21.8738 13.1524 22.3093 12.8963C22.7444 12.6402 23.0292 12.4743 23.1631 12.398C24.3951 11.7012 27.5293 9.93145 32.5648 7.08904C33.5424 6.53389 34.3592 5.86403 35.0153 5.0799C35.672 4.29612 35.9999 3.47389 35.9999 2.61367C35.9999 1.89483 35.6817 1.27948 35.0455 0.767706C34.4093 0.255806 33.6558 0 32.7856 0H3.21415C2.18297 0 1.3894 0.283098 0.8336 0.84929C0.277867 1.4156 0 2.12346 0 2.97281C0 3.65887 0.368425 4.40231 1.10492 5.20268C1.84135 6.00311 2.62506 6.63206 3.45528 7.08938Z" fill="white"/>
<path d="M33.9908 8.83747C29.5984 11.2548 26.2631 13.1335 23.9867 14.4731C23.2233 14.9304 22.604 15.2873 22.1284 15.543C21.6528 15.7989 21.0203 16.0603 20.23 16.327C19.44 16.594 18.7037 16.7272 18.0205 16.7272H18H17.9798C17.2968 16.7272 16.5601 16.594 15.7701 16.327C14.98 16.0603 14.3471 15.7989 13.8716 15.543C13.3963 15.2873 12.7769 14.9304 12.0136 14.4731C10.2054 13.3951 6.87735 11.5163 2.02922 8.83747C1.26563 8.42391 0.589297 7.9499 0 7.41638V20.386C0 21.1052 0.314596 21.7202 0.944141 22.2321C1.57354 22.7441 2.33038 23 3.21436 23H32.7859C33.6696 23 34.4264 22.7441 35.0559 22.2321C35.6855 21.7201 36 21.1053 36 20.386V7.41638C35.424 7.93886 34.7546 8.41288 33.9908 8.83747Z" fill="white"/>
</svg>
