<svg width="40" height="35" viewBox="0 0 40 35" fill="none" xmlns="http://www.w3.org/2000/svg">
<path d="M39.5729 8.73922C39.3253 8.15592 38.8301 7.66984 38.2358 7.4268L20.9024 0.184231C20.2585 -0.0588063 19.5652 -0.0588063 18.9214 0.184231L1.58795 7.47541C0.300325 8.01009 -0.293965 9.46833 0.250801 10.7321C0.498421 11.3154 0.993663 11.8015 1.58795 12.0446L18.9214 19.2871C19.5652 19.5302 20.2585 19.5302 20.9024 19.2871L38.2358 11.9959C39.5234 11.4613 40.1177 10.003 39.5729 8.73922Z" fill="white"/>
<path d="M39.8708 23.4175C39.4251 22.1051 37.9889 21.376 36.6517 21.8135C36.5032 21.8621 36.3546 21.9107 36.206 22.0079L19.863 28.813L3.52009 22.0079C2.23246 21.4732 0.746738 22.0565 0.201972 23.3203C-0.342793 24.5841 0.251497 26.0423 1.53912 26.577L18.8726 33.8196C19.5164 34.0626 20.2097 34.0626 20.8535 33.8196L38.187 26.5284C39.5737 26.1396 40.3165 24.73 39.8708 23.4175Z" fill="white"/>
<path d="M39.573 16.0786C39.0282 14.7661 37.5425 14.1828 36.2548 14.7175L19.9119 21.5712L3.56892 14.7175C2.28129 14.1828 0.795566 14.7661 0.250801 16.0299C-0.293965 17.2937 0.300325 18.752 1.58795 19.2867L18.9214 26.5778C19.5652 26.8209 20.2585 26.8209 20.9024 26.5778L38.2358 19.3353C39.5234 18.8006 40.1177 17.3423 39.573 16.0786Z" fill="white"/>
</svg>
