<svg width="32" height="36" viewBox="0 0 32 36" fill="none" xmlns="http://www.w3.org/2000/svg">
<path d="M21.0444 6.07397V4.85918C21.0013 2.17825 18.7588 0 15.9989 0C13.2389 0 10.9964 2.17825 10.9532 4.90107V6.07397C6.55451 8.00089 3.70828 12.2736 3.70828 16.9652V20.9447H28.2894V17.1747C28.2894 12.4412 25.4432 8.12656 21.0444 6.07397Z" fill="white"/>
<path d="M29.4542 23.0387H2.54437C0.905625 24.5886 0 26.6831 0 28.9451V29.9504C0 30.7045 0.646876 31.2909 1.38 31.2909H9.9187C10.6949 34.5583 14.0156 36.569 17.3793 35.8568C19.708 35.3542 21.5624 33.5529 22.0799 31.2909H30.6186C31.3948 31.2909 31.9986 30.6626 31.9986 29.9504V28.9451C32.0417 26.6831 31.093 24.5886 29.4542 23.0387Z" fill="white"/>
</svg>
