<svg width="46" height="32" viewBox="0 0 46 32" fill="none" xmlns="http://www.w3.org/2000/svg">
<path fill-rule="evenodd" clip-rule="evenodd" d="M38.7864 0H7.21364C3.24091 0 0 3.30667 0 7.35999V24.6933C0 28.6933 3.24091 32 7.21364 32H38.8386C42.7591 32 46 28.6933 46 24.64V7.35999C46 3.30667 42.7591 0 38.7864 0ZM27.5472 10.7205H35.3881C36.1722 10.7205 36.8517 11.3605 36.8517 12.2139C36.8517 13.0672 36.2245 13.7072 35.3881 13.7072H27.5472C26.7631 13.7072 26.0836 13.0672 26.0836 12.2139C26.0836 11.3605 26.7631 10.7205 27.5472 10.7205ZM21.4841 15.9998C21.4841 20.2132 18.1909 23.6265 14.0613 23.6265C9.93178 23.6798 6.53406 20.2665 6.53406 16.0531C6.48178 11.8398 9.82724 8.37314 13.9568 8.37314C18.0863 8.31982 21.4318 11.7332 21.4841 15.9465V15.9998ZM35.9631 21.2807H27.5472C26.7631 21.2807 26.0836 20.6407 26.0836 19.7874C26.0836 18.9341 26.7108 18.2941 27.5472 18.2941H35.9631C36.7472 18.2941 37.4267 18.9341 37.4267 19.7874C37.4267 20.6407 36.7472 21.2807 35.9631 21.2807Z" fill="white"/>
</svg>
