<svg width="36" height="32" viewBox="0 0 36 32" fill="none" xmlns="http://www.w3.org/2000/svg">
<path d="M35.616 8.22331C35.3932 7.67432 34.9474 7.21684 34.4126 6.98809L18.8125 0.171556C18.233 -0.0571853 17.609 -0.0571853 17.0296 0.171556L1.42952 7.03384C0.270653 7.53708 -0.264208 8.90953 0.226081 10.099C0.44894 10.648 0.894657 11.1055 1.42952 11.3342L17.0296 18.1507C17.609 18.3795 18.2331 18.3795 18.8125 18.1507L34.4126 11.2885C35.5714 10.7852 36.1063 9.41277 35.616 8.22331Z" fill="white"/>
<path d="M35.8837 22.0383C35.4826 20.8031 34.19 20.1169 32.9866 20.5286C32.8528 20.5744 32.7191 20.6201 32.5854 20.7116L17.8767 27.1164L3.16808 20.7116C2.00922 20.2084 0.672064 20.7574 0.181775 21.9469C-0.308513 23.1363 0.226347 24.5087 1.38521 25.012L16.9853 31.8285C17.5647 32.0573 18.1887 32.0573 18.7682 31.8285L34.3683 24.9662C35.6163 24.6003 36.2849 23.2736 35.8837 22.0383Z" fill="white"/>
<path d="M35.6161 15.1309C35.1259 13.8957 33.7887 13.3467 32.6298 13.8499L17.9212 20.3005L3.21251 13.8499C2.05365 13.3467 0.716498 13.8957 0.226209 15.0851C-0.26408 16.2746 0.270781 17.647 1.42965 18.1503L17.0297 25.0126C17.6092 25.2413 18.2332 25.2413 18.8126 25.0126L34.4127 18.196C35.5716 17.6928 36.1064 16.3203 35.6161 15.1309Z" fill="white"/>
</svg>
