<svg width="44" height="44" viewBox="0 0 44 44" fill="none" xmlns="http://www.w3.org/2000/svg">
<path d="M29.682 3.66663H14.3187C7.64533 3.66663 3.66699 7.64496 3.66699 14.3183V29.6633C3.66699 36.355 7.64533 40.3333 14.3187 40.3333H29.6637C36.337 40.3333 40.3153 36.355 40.3153 29.6816V14.3183C40.3337 7.64496 36.3553 3.66663 29.682 3.66663ZM18.2237 24.3283C16.977 26.1983 15.2537 27.72 13.237 28.7283C13.0537 28.82 12.8337 28.875 12.632 28.875C12.1187 28.875 11.642 28.6 11.4037 28.1233C11.0553 27.445 11.3303 26.62 12.027 26.2716C13.622 25.4833 14.9787 24.2733 15.9503 22.8066C16.2803 22.3116 16.2803 21.6883 15.9503 21.1933C14.9603 19.7266 13.6037 18.5166 12.027 17.7283C11.3303 17.3983 11.0553 16.5733 11.4037 15.8766C11.7337 15.1983 12.5587 14.9233 13.237 15.2716C15.2537 16.28 16.977 17.8016 18.2237 19.6716C19.177 21.0833 19.177 22.9166 18.2237 24.3283ZM31.167 28.875H23.8337C23.082 28.875 22.4587 28.2516 22.4587 27.5C22.4587 26.7483 23.082 26.125 23.8337 26.125H31.167C31.9187 26.125 32.542 26.7483 32.542 27.5C32.542 28.2516 31.9187 28.875 31.167 28.875Z" fill="white"/>
</svg>
