<svg width="44" height="44" viewBox="0 0 44 44" fill="none" xmlns="http://www.w3.org/2000/svg">
<path d="M29.3333 3.66663H14.6667C8.25 3.66663 5.5 7.33329 5.5 12.8333V21.0283C5.5 21.67 6.12333 22.11 6.71 21.89C8.72667 21.1016 11.0183 20.845 13.3833 21.3216C18.15 22.275 21.945 26.1983 22.7333 30.9833C23.21 33.8983 22.6233 36.6666 21.285 38.9583C20.9183 39.5633 21.3583 40.3333 22.0733 40.3333H29.3333C35.75 40.3333 38.5 36.6666 38.5 31.1666V12.8333C38.5 7.33329 35.75 3.66663 29.3333 3.66663ZM33.9167 16.9583H30.25C27.4633 16.9583 25.2083 14.7033 25.2083 11.9166V8.24996C25.2083 7.49829 25.8317 6.87496 26.5833 6.87496C27.335 6.87496 27.9583 7.49829 27.9583 8.24996V11.9166C27.9583 13.1816 28.985 14.2083 30.25 14.2083H33.9167C34.6683 14.2083 35.2917 14.8316 35.2917 15.5833C35.2917 16.335 34.6683 16.9583 33.9167 16.9583Z" fill="white"/>
<path d="M10.9997 23.8334C5.93967 23.8334 1.83301 27.94 1.83301 33C1.83301 38.06 5.93967 42.1667 10.9997 42.1667C16.0597 42.1667 20.1663 38.06 20.1663 33C20.1663 27.94 16.0597 23.8334 10.9997 23.8334ZM9.45967 35.3284C9.91801 35.7867 9.91801 36.5384 9.45967 37.015C9.22134 37.2534 8.92801 37.3634 8.61634 37.3634C8.30467 37.3634 8.01134 37.2534 7.77301 37.015L4.60134 33.8434C4.14301 33.385 4.14301 32.6334 4.60134 32.1567L7.77301 28.985C8.23134 28.5267 8.98301 28.5267 9.45967 28.985C9.91801 29.4434 9.91801 30.195 9.45967 30.6717L7.13134 33L9.45967 35.3284ZM17.3797 33.8434L14.208 37.015C13.9697 37.2534 13.6763 37.3634 13.3647 37.3634C13.053 37.3634 12.7597 37.2534 12.5213 37.015C12.063 36.5567 12.063 35.805 12.5213 35.3284L14.868 33L12.5397 30.6717C12.0813 30.2134 12.0813 29.4617 12.5397 28.985C12.998 28.5267 13.7497 28.5267 14.2263 28.985L17.398 32.1567C17.838 32.6334 17.838 33.3667 17.3797 33.8434Z" fill="white"/>
</svg>
