<svg width="44" height="44" viewBox="0 0 44 44" fill="none" xmlns="http://www.w3.org/2000/svg">
<path d="M29.3337 3.61169H14.667C7.33366 3.61169 3.66699 7.27836 3.66699 14.6117V23.7784C3.66699 32.945 7.33366 34.7784 14.667 34.7784H15.5837C16.097 34.7784 16.757 35.1084 17.0503 35.5117L19.8003 39.1784C21.0103 40.7917 22.9903 40.7917 24.2003 39.1784L26.9503 35.5117C27.2987 35.0534 27.8487 34.7784 28.417 34.7784H29.3337C36.667 34.7784 40.3337 31.1117 40.3337 23.7784V14.6117C40.3337 7.27836 36.667 3.61169 29.3337 3.61169ZM15.6387 22.3117C16.1703 22.8434 16.1703 23.7234 15.6387 24.255C15.3637 24.53 15.0153 24.6584 14.667 24.6584C14.3187 24.6584 13.9703 24.53 13.6953 24.255L10.0287 20.5884C9.49699 20.0567 9.49699 19.1767 10.0287 18.645L13.6953 14.9784C14.227 14.4467 15.107 14.4467 15.6387 14.9784C16.1703 15.51 16.1703 16.39 15.6387 16.9217L12.9437 19.6167L15.6387 22.3117ZM25.0987 15.8767L21.432 24.4384C21.212 24.9517 20.6987 25.2634 20.167 25.2634C19.9837 25.2634 19.8003 25.2267 19.617 25.1534C18.9203 24.86 18.5903 24.0534 18.902 23.3384L22.5687 14.7767C22.862 14.08 23.6687 13.75 24.3837 14.0617C25.0803 14.3734 25.392 15.18 25.0987 15.8767ZM33.972 20.5884L30.3053 24.255C30.0303 24.53 29.682 24.6584 29.3337 24.6584C28.9853 24.6584 28.637 24.53 28.362 24.255C27.8303 23.7234 27.8303 22.8434 28.362 22.3117L31.057 19.6167L28.362 16.9217C27.8303 16.39 27.8303 15.51 28.362 14.9784C28.8937 14.4467 29.7737 14.4467 30.3053 14.9784L33.972 18.645C34.5037 19.1767 34.5037 20.0567 33.972 20.5884Z" fill="white"/>
</svg>
