<svg width="44" height="44" viewBox="0 0 44 44" fill="none" xmlns="http://www.w3.org/2000/svg">
<path d="M29.682 3.66663H14.3187C7.64533 3.66663 3.66699 7.64496 3.66699 14.3183V29.6633C3.66699 36.355 7.64533 40.3333 14.3187 40.3333H29.6637C36.337 40.3333 40.3153 36.355 40.3153 29.6816V14.3183C40.3337 7.64496 36.3553 3.66663 29.682 3.66663ZM29.7003 33.4583C27.6287 33.4583 25.942 31.7716 25.942 29.7C25.942 28.49 26.5287 27.4266 27.427 26.73C26.657 24.7133 24.732 23.32 22.5687 23.3933L18.792 23.4116H18.7737C17.6553 23.4116 16.592 23.0816 15.6937 22.5133V26.2166C17.087 26.7666 18.077 28.1233 18.077 29.7C18.077 31.7716 16.3903 33.4583 14.3187 33.4583C12.247 33.4583 10.5603 31.7716 10.5603 29.7C10.5603 28.105 11.5503 26.7666 12.9437 26.2166V18.2416C11.5503 17.6 10.5603 16.2066 10.5603 14.575C10.5603 12.3566 12.3753 10.5416 14.5937 10.5416C16.812 10.5416 18.627 12.3566 18.627 14.575C18.627 16.3716 17.4353 17.875 15.8037 18.4066C16.1703 19.745 17.3803 20.68 18.7737 20.68C18.7737 20.68 18.7737 20.68 18.792 20.68L22.5687 20.6616C22.587 20.6616 22.587 20.6616 22.6053 20.6616C25.9787 20.6616 29.0037 22.8066 30.1037 25.9966C31.992 26.1983 33.477 27.775 33.477 29.7183C33.4587 31.7716 31.772 33.4583 29.7003 33.4583Z" fill="white"/>
</svg>
