<svg height="512pt" viewBox="0 0 512 512" width="512pt" xmlns="http://www.w3.org/2000/svg"><path d="m499.546875 403.972656h-26.546875v-3.007812c0-6.613282-5.378906-11.992188-11.992188-11.992188h-110.597656c26.460938-15.105468 48.539063-36.289062 64.683594-61.386718l17.574219 6.453124c3.972656 1.457032 8.042969 2.148438 12.046875 2.148438 14.289062 0 27.746094-8.804688 32.949218-22.980469l6.132813-16.699219c.683594-1.867187.601563-3.929687-.234375-5.734374-.835938-1.804688-2.355469-3.203126-4.222656-3.890626l-19.308594-7.085937c-7.4375-2.734375-15.402344-2.863281-22.824219-.457031 2.460938-8.316406 4.355469-16.847656 5.648438-25.546875h17.582031c19.332031 0 35.0625-15.726563 35.0625-35.0625v-17.789063c0-4.140625-3.359375-7.5-7.5-7.5h-20.566406c-9.246094 0-17.664063 3.605469-23.9375 9.476563-1.46875-12.027344-4.09375-23.800781-7.820313-35.199219h11.804688c19.332031 0 35.0625-15.730469 35.0625-35.0625v-17.789062c0-4.144532-3.359375-7.5-7.5-7.5h-20.566407c-16.28125 0-30.003906 11.152343-33.929687 26.21875-3.890625-6.820313-8.222656-13.4375-13-19.816407-3.535156-4.71875-7.300781-9.261719-11.265625-13.617187h3.996094c19.332031 0 35.0625-15.730469 35.0625-35.0625v-17.789063c0-4.144531-3.359375-7.5-7.5-7.5h-20.566406c-19.332032 0-35.0625 15.726563-35.0625 35.0625v3.066407c-9.550782-7.402344-19.796876-13.886719-30.5625-19.332032 13.992187-4.605468 24.125-17.792968 24.125-33.308594v-17.789062c0-4.140625-3.355469-7.5-7.5-7.5h-20.5625c-19.335938 0-35.0625 15.730469-35.0625 35.0625v17.789062c0 1.140626.261718 2.214844.714843 3.183594.652344 2.398438 2.472657 4.425782 5.023438 5.210938 34.457031 10.648437 65.414062 32.496094 87.160156 61.515625 22.480469 30.003906 34.363281 65.738281 34.363281 103.34375 0 73.390625-46.378906 138.683593-115.53125 162.867187h-7.878906c-21.40625 0-40.101562 11.765625-50 29.160156-9.898438-17.394531-28.59375-29.160156-50-29.160156h-8.875c-69.152344-24.183594-115.535156-89.476562-115.535156-162.867187 0-37.605469 11.882812-73.339844 34.367187-103.34375 21.746094-29.019531 52.699219-50.867188 87.160157-61.515625 2.550781-.785156 4.371093-2.8125 5.023437-5.210938.453125-.96875.714844-2.042968.714844-3.183594v-17.789062c0-19.332031-15.726563-35.0625-35.0625-35.0625h-20.566407c-4.140624 0-7.5 3.359375-7.5 7.5v17.789062c0 15.515626 10.132813 28.699219 24.128907 33.308594-10.765625 5.445313-21.011719 11.929688-30.566407 19.332032v-3.066407c0-19.335937-15.726562-35.0625-35.058593-35.0625h-20.570313c-4.140625 0-7.5 3.355469-7.5 7.5v17.789063c0 19.332031 15.730469 35.0625 35.0625 35.0625h3.996094c-3.964844 4.355468-7.730469 8.898437-11.265625 13.617187-4.777344 6.378907-9.109375 12.996094-12.996094 19.816407-3.929687-15.066407-17.652343-26.21875-33.933593-26.21875h-20.566407c-4.140625 0-7.5 3.355468-7.5 7.5v17.789062c0 19.332031 15.730469 35.0625 35.0625 35.0625h11.804688c-3.726563 11.398438-6.347657 23.171875-7.820313 35.199219-6.273437-5.871094-14.6875-9.476563-23.9375-9.476563h-20.566406c-4.140625 0-7.5 3.359375-7.5 7.5v17.789063c0 19.335937 15.730469 35.0625 35.0625 35.0625h17.582031c1.292969 8.699219 3.191407 17.230469 5.648438 25.546875-7.421875-2.40625-15.386719-2.277344-22.824219.457031l-19.308594 7.085937c-1.867187.6875-3.386718 2.085938-4.222656 3.890626-.835938 1.804687-.917969 3.867187-.234375 5.734374l6.132813 16.699219c5.203124 14.179688 18.65625 22.980469 32.949218 22.980469 4.003906 0 8.074219-.691406 12.046875-2.148438l17.574219-6.453124c16.144531 25.097656 38.222656 46.28125 64.683594 61.386718h-109.597656c-6.613282 0-11.992188 5.378906-11.992188 11.992188v3.007812h-27.546875c-6.867187 0-12.453125 5.585938-12.453125 12.453125v81.714844c0 7.625 6.207031 13.832031 13.835938 13.832031h484.328124c7.628907 0 13.835938-6.207031 13.835938-13.832031v-81.714844c0-6.867187-5.585938-12.453125-12.453125-12.453125zm-44.683594-110.097656 12.265625 4.503906-3.542968 9.660156c-3.816407 10.382813-15.363282 15.730469-25.75 11.917969l-12.265626-4.503906 3.546876-9.65625c1.847656-5.03125 5.542968-9.042969 10.40625-11.292969 4.859374-2.253906 10.308593-2.476562 15.339843-.628906zm-20.449219-151.449219c0-11.0625 9-20.0625 20.0625-20.0625h13.066407v10.289063c0 11.0625-9 20.0625-20.0625 20.0625h-13.066407zm-47.203124-67.566406c0-11.058594 9-20.058594 20.0625-20.058594h13.066406v10.289063c0 11.0625-9 20.0625-20.0625 20.0625h-13.066406zm-69.566407-39.796875c0-11.0625 9-20.0625 20.0625-20.0625h13.066407v10.289062c0 11.0625-9 20.0625-20.0625 20.0625h-13.066407zm129.726563 193.441406c0-11.0625 9-20.0625 20.0625-20.0625h13.066406v10.289063c0 11.0625-9 20.0625-20.0625 20.0625h-13.066406zm-286.144532-203.214844v-10.289062h13.066407c11.0625 0 20.0625 9 20.0625 20.0625v10.289062h-13.066407c-11.0625 0-20.0625-9-20.0625-20.0625zm-69.566406 39.800782v-10.289063h13.066406c11.0625 0 20.0625 9 20.0625 20.058594v10.292969h-13.066406c-11.0625 0-20.0625-9-20.0625-20.0625zm-47.203125 67.5625v-10.289063h13.066407c11.0625 0 20.0625 9 20.0625 20.0625v10.289063h-13.066407c-11.0625 0-20.0625-9-20.0625-20.0625zm29.707031 187.304687c-10.382812 3.8125-21.933593-1.535156-25.746093-11.917969l-3.546875-9.660156 12.265625-4.503906c5.03125-1.847656 10.476562-1.625 15.34375.628906 4.863281 2.25 8.554687 6.261719 10.402343 11.292969l3.546876 9.65625zm-9.535156-81.164062h-13.066406c-11.0625 0-20.0625-9-20.0625-20.0625v-10.289063h13.066406c11.0625 0 20.0625 9 20.0625 20.0625zm241.871094 165.179687h151.5v15h-151.5c-16.203125 0-30.855469 6.75-41.316406 17.574219 4.484375-18.660156 21.300781-32.574219 41.316406-32.574219zm151.5 30v13h-151.5c-15.808594 0-30.148438 6.417969-40.554688 16.78125 5.421876-17.242187 21.550782-29.78125 40.554688-29.78125zm-403-30h151.5c20.015625 0 36.832031 13.914063 41.316406 32.574219-10.460937-10.824219-25.113281-17.574219-41.316406-17.574219h-13c-4.140625 0-7.5 3.359375-7.5 7.5 0 4.144532 3.359375 7.5 7.5 7.5h13c19.003906 0 35.132812 12.539063 40.554688 29.78125-10.40625-10.363281-24.746094-16.78125-40.554688-16.78125h-151.5v-13h108.5c4.140625 0 7.5-3.355468 7.5-7.5 0-4.140625-3.359375-7.5-7.5-7.5h-108.5zm-40 15h25v31.011719c0 6.609375 5.378906 11.988281 11.992188 11.988281h154.507812c20.875 0 38.269531 15.132813 41.824219 35h-233.324219zm482 78h-232.324219c3.554688-19.867187 20.949219-35 41.824219-35h154.507812c6.613282 0 11.992188-5.378906 11.992188-11.988281v-31.011719h24zm0 0"/><path d="m111 224.472656c0 80.230469 65.269531 145.5 145.5 145.5s145.5-65.269531 145.5-145.5c0-80.226562-65.269531-145.5-145.5-145.5s-145.5 65.273438-145.5 145.5zm15.222656 7.5h44.890625c1.035157 35.332032 9.355469 68.390625 23.703125 93.773438 4.378906 7.746094 9.1875 14.539062 14.339844 20.335937-46.40625-18.128906-79.972656-62.089843-82.933594-114.109375zm137.777344-137.234375c15.261719 3.085938 29.644531 15.535157 41.125 35.84375 13.109375 23.195313 20.734375 53.636719 21.75 86.390625h-62.875zm62.875 137.234375c-1.015625 32.753906-8.640625 63.199219-21.75 86.390625-11.480469 20.308594-25.863281 32.757813-41.125 35.847657v-122.238282zm-77.875 122.238282c-15.261719-3.089844-29.644531-15.539063-41.125-35.847657-13.109375-23.195312-20.734375-53.636719-21.75-86.390625h62.875zm54.847656-8.128907c5.148438-5.796875 9.957032-12.589843 14.335938-20.335937 14.347656-25.382813 22.667968-58.441406 23.703125-93.773438h44.894531c-2.964844 52.019532-36.53125 95.980469-82.933594 114.109375zm82.929688-129.109375h-44.890625c-1.035157-35.328125-9.355469-68.386718-23.703125-93.769531-4.378906-7.746094-9.1875-14.539063-14.339844-20.335937 46.40625 18.128906 79.972656 62.085937 82.933594 114.105468zm-177.417969-114.183594c-11.734375 13.074219-21.558594 31.082032-28.367187 52.917969-1.230469 3.953125.976562 8.160157 4.929687 9.390625 3.957031 1.234375 8.160156-.972656 9.394531-4.925781 11.441406-36.722656 31.554688-60.917969 53.6875-65.425781v122.226562h-62.875c.296875-9.445312 1.144532-18.796875 2.554688-27.886718.632812-4.09375-2.171875-7.925782-6.265625-8.558594-4.097657-.632813-7.925781 2.171875-8.558594 6.265625-1.523437 9.84375-2.433594 19.964843-2.738281 30.179687h-44.898438c2.964844-52.09375 36.625-96.105468 83.136719-114.183594zm0 0"/></svg>