<svg width="134" height="211" viewBox="0 0 134 211" fill="none" xmlns="http://www.w3.org/2000/svg">
<path opacity="0.5" d="M21.3451 166.125C23.1239 166.125 25.0509 166.423 27.1261 167.017C29.2013 167.611 31.5236 168.8 34.0929 170.583C37.4528 173.159 41.455 175.437 46.0996 177.418C50.7441 179.4 56.1298 180.39 62.2566 180.39C68.3835 180.39 74.1645 178.855 79.5996 175.784C85.0347 172.713 89.531 168.354 93.0885 162.708C96.646 157.061 98.4248 150.276 98.4248 142.351C98.4248 134.822 96.8931 128.581 93.8296 123.628C90.7662 118.675 86.7146 114.911 81.6748 112.335C76.6349 109.76 71.2493 108.472 65.5177 108.472C61.1696 108.472 57.5627 108.868 54.6969 109.661C51.8311 110.453 49.0642 111.295 46.396 112.187C43.7279 113.078 40.615 113.524 37.0575 113.524C32.5118 113.524 29.0037 111.939 26.5332 108.769C24.0627 105.599 22.8274 101.835 22.8274 97.4761C22.8274 94.7024 23.3709 92.2258 24.458 90.0465C25.545 87.8671 27.1755 85.4897 29.3496 82.9141L81.5266 25.8549L89.531 32.6901H16.6018C11.8584 32.6901 7.9056 31.1052 4.74336 27.9352C1.58112 24.7653 0 20.8028 0 16.0479C0 11.4911 1.58112 7.67725 4.74336 4.60634C7.9056 1.53545 11.8584 1.52588e-05 16.6018 0H107.319C113.445 0 118.041 1.68404 121.104 5.05212C124.167 8.42023 125.699 12.6799 125.699 17.831C125.699 20.4066 125.057 22.8831 123.772 25.2606C122.487 27.638 120.758 29.9165 118.584 32.0958L66.1106 90.0465L58.1062 79.9423C60.2802 78.9516 63.2943 78.0601 67.1482 77.2676C71.0022 76.4751 74.2139 76.0789 76.7832 76.0789C88.444 76.0789 98.573 79.1003 107.17 85.143C115.768 91.1857 122.389 99.0115 127.033 108.62C131.678 118.229 134 128.581 134 139.676C134 154.337 130.739 167.017 124.217 177.715C117.695 188.414 108.504 196.636 96.646 202.382C84.7876 208.127 70.9528 211 55.1416 211C47.8289 211 40.615 210.108 33.5 208.325C26.385 206.542 20.2581 204.165 15.1195 201.193C10.7714 198.816 7.85619 196.19 6.37389 193.318C4.89159 190.445 4.15044 187.721 4.15044 185.145C4.15044 180.588 5.78097 176.279 9.04204 172.218C12.3031 168.156 16.4041 166.125 21.3451 166.125Z" fill="url(#paint0_linear_2080_4614)"/>
<defs>
<linearGradient id="paint0_linear_2080_4614" x1="-20.6094" y1="0" x2="-20.6094" y2="275.904" gradientUnits="userSpaceOnUse">
<stop stop-color="#ABAFC7"/>
<stop offset="1" stop-color="white" stop-opacity="0.01"/>
</linearGradient>
</defs>
</svg>
