<svg width="138" height="212" viewBox="0 0 138 212" fill="none" xmlns="http://www.w3.org/2000/svg">
<path opacity="0.5" d="M120.693 178.81C125.448 178.81 129.411 180.395 132.581 183.565C135.751 186.735 137.336 190.697 137.336 195.452C137.336 200.009 135.751 203.823 132.581 206.894C129.411 209.965 125.448 211.5 120.693 211.5H19.6512C14.5001 211.5 10.4386 209.915 7.46674 206.745C4.49491 203.575 3.00899 199.514 3.00899 194.561C3.00899 189.608 4.79209 185.249 8.35829 181.485L73.1442 112.241C80.2766 104.514 86.0221 96.6387 90.3808 88.6148C94.7395 80.5909 96.9189 73.1117 96.9189 66.1775C96.9189 60.0357 95.4329 54.4883 92.4611 49.5352C89.4893 44.5822 85.6259 40.6197 80.871 37.6479C76.116 34.6761 70.9649 33.1902 65.4174 33.1902C59.6719 33.1902 53.8273 35.1219 47.8836 38.9852C41.94 42.8486 36.6898 47.9502 32.1329 54.2901C29.7555 57.4601 27.378 59.4413 25.0005 60.2338C22.6231 61.0263 20.4437 61.4226 18.4625 61.4226C14.1038 61.4226 10.0919 59.788 6.4266 56.519C2.76134 53.25 0.92871 49.4362 0.928711 45.0775C0.92871 41.7094 2.06791 38.4404 4.34632 35.2704C6.62472 32.1005 9.44796 28.8315 12.816 25.4634C20.3447 17.9348 29.062 11.892 38.9682 7.33521C48.8743 2.77841 58.3841 0.500015 67.4977 0.5C80.97 0.5 92.5602 3.2737 102.268 8.82112C111.976 14.3685 119.505 21.9962 124.854 31.7042C130.203 41.4122 132.878 52.408 132.878 64.6916C132.878 73.0127 131.343 81.4824 128.272 90.1007C125.201 98.719 120.991 107.09 115.641 115.213C110.292 123.336 104.15 131.162 97.216 138.69L57.0963 181.485L53.8273 178.81H120.693Z" fill="url(#paint0_linear_2080_4622)"/>
<defs>
<linearGradient id="paint0_linear_2080_4622" x1="-8.20722" y1="0.499994" x2="-8.20724" y2="239.764" gradientUnits="userSpaceOnUse">
<stop stop-color="#ABAFC7"/>
<stop offset="1" stop-color="white" stop-opacity="0.01"/>
</linearGradient>
</defs>
</svg>
