<svg width="89" height="217" viewBox="0 0 89 217" fill="none" xmlns="http://www.w3.org/2000/svg">
<path opacity="0.5" d="M67.9541 217C62.1896 217 57.4546 215.199 53.7489 211.596C50.0432 207.993 48.1903 203.515 48.1903 198.163V42.5232L52.5136 49.3169L29.0442 63.5221C25.9561 65.375 22.6621 66.3014 19.1623 66.3014C13.8096 66.3014 9.38337 64.2942 5.88354 60.2796C2.3837 56.2651 0.633789 51.9933 0.633789 47.4641C0.633789 40.4644 3.82481 35.1118 10.2069 31.406L56.837 3.61327C60.3368 1.76042 64.763 0.833984 70.1157 0.833984C75.4684 0.833984 79.8432 2.63538 83.2401 6.23816C86.637 9.84093 88.3354 14.3186 88.3354 19.6713V198.163C88.3354 203.515 86.4311 207.993 82.6225 211.596C78.8138 215.199 73.9244 217 67.9541 217Z" fill="url(#paint0_linear_2080_4630)"/>
<defs>
<linearGradient id="paint0_linear_2080_4630" x1="-7.34993" y1="0.833941" x2="-7.35014" y2="256.356" gradientUnits="userSpaceOnUse">
<stop stop-color="#ABAFC7"/>
<stop offset="1" stop-color="white" stop-opacity="0.01"/>
</linearGradient>
</defs>
</svg>
