<svg width="40" height="40" viewBox="0 0 40 40" fill="none" xmlns="http://www.w3.org/2000/svg">
<path d="M19.9996 23.3334C11.6496 23.3334 4.84961 28.9334 4.84961 35.8334C4.84961 36.3 5.21628 36.6667 5.68294 36.6667H34.3163C34.7829 36.6667 35.1496 36.3 35.1496 35.8334C35.1496 28.9334 28.3496 23.3334 19.9996 23.3334Z" fill="#6001D3"/>
<path d="M20.0003 3.33337C18.0337 3.33337 16.2337 4.01671 14.8003 5.16671C12.8837 6.68337 11.667 9.03338 11.667 11.6667C11.667 13.2334 12.1003 14.7 12.8837 15.95C14.317 18.3667 16.9503 20 20.0003 20C22.1003 20 24.017 19.2334 25.4837 17.9167C26.1337 17.3667 26.7003 16.7 27.1337 15.95C27.9003 14.7 28.3337 13.2334 28.3337 11.6667C28.3337 7.06671 24.6003 3.33337 20.0003 3.33337ZM24.317 10.7667L19.867 14.8667C19.567 15.15 19.1837 15.2834 18.8003 15.2834C18.4003 15.2834 18.0003 15.1334 17.7003 14.8334L15.6503 12.7667C15.0337 12.15 15.0337 11.1667 15.6503 10.55C16.267 9.93338 17.2503 9.93338 17.867 10.55L18.8503 11.5334L22.2003 8.45004C22.8337 7.86671 23.817 7.90004 24.4003 8.53337C24.9837 9.18337 24.9503 10.1834 24.317 10.7667Z" fill="#6001D3"/>
</svg>
