<svg width="40" height="40" viewBox="0 0 40 40" fill="none" xmlns="http://www.w3.org/2000/svg">
<path d="M19.9996 25C11.6496 25 4.84961 30.6 4.84961 37.5C4.84961 37.9667 5.21628 38.3333 5.68294 38.3333H34.3163C34.7829 38.3333 35.1496 37.9667 35.1496 37.5C35.1496 30.6 28.3496 25 19.9996 25Z" fill="#6001D3"/>
<path d="M26.1837 6.10004C24.6837 4.40004 22.4503 3.33337 20.0003 3.33337C17.667 3.33337 15.5337 4.28337 14.017 5.85004C12.567 7.35004 11.667 9.41671 11.667 11.6667C11.667 13.2334 12.1003 14.7 12.8837 15.95C13.3003 16.6667 13.8337 17.3167 14.467 17.85C15.917 19.1834 17.8503 20 20.0003 20C23.0503 20 25.6837 18.3667 27.1337 15.95C27.567 15.2334 27.9003 14.4334 28.0837 13.6C28.2503 12.9834 28.3337 12.3334 28.3337 11.6667C28.3337 9.53337 27.517 7.58337 26.1837 6.10004ZM23.117 13.2H21.567V14.8167C21.567 15.6834 20.867 16.3834 20.0003 16.3834C19.1337 16.3834 18.4337 15.6834 18.4337 14.8167V13.2H16.8837C16.017 13.2 15.317 12.5 15.317 11.6334C15.317 10.7667 16.017 10.0667 16.8837 10.0667H18.4337V8.58337C18.4337 7.71671 19.1337 7.01671 20.0003 7.01671C20.867 7.01671 21.567 7.71671 21.567 8.58337V10.0667H23.117C23.9837 10.0667 24.6837 10.7667 24.6837 11.6334C24.6837 12.5 23.9837 13.2 23.117 13.2Z" fill="#6001D3"/>
</svg>
